<svg width="200" height="190" viewBox="0 0 200 190" fill="none" xmlns="http://www.w3.org/2000/svg">
<g clip-path="url(#clip0_540_4803)">
<path d="M199.969 14.5336C199.877 14.3814 199.662 14.28 199.446 14.3307C197.569 14.9901 195.692 15.5481 193.754 16.1315C188.431 17.7548 182.892 18.8201 177.354 19.8853C171.015 21.0521 164.554 21.8891 158.246 23.1826C152.8 24.2732 147.385 25.5921 142.154 27.3169C138.215 28.5851 134.338 29.9547 130.708 31.7048C126.4 33.6578 122.923 36.5746 119.538 39.4661C116.431 42.1546 113.292 44.8431 110.554 47.8107C109.015 49.4847 107.723 51.3109 106.492 53.1371C108.431 47.1005 111.138 41.0132 116.092 36.1941C116.462 35.8137 116.031 35.3571 115.508 35.5601C114.246 36.0673 113.077 36.7268 111.877 37.3355C102.708 42.459 94.5231 48.8252 87.4769 55.851C84.0308 59.3258 80.7077 62.8767 77.9692 66.7573C74.8 71.2974 72.4 76.1926 70.6769 81.24C70.4923 78.247 70.8 75.2541 71.2923 72.2866C71.3846 71.754 71.4769 71.2467 71.5077 70.7141C71.5077 70.359 71.6308 69.8517 71.2 69.6488C70.8923 69.522 70.5846 69.6488 70.3692 69.8517C70.0923 70.08 69.8769 70.3336 69.6308 70.5872C69.1385 71.1199 68.6462 71.6779 68.1846 72.2359C66.6462 74.0367 65.2615 75.939 64.0615 77.9173C61.1077 82.914 58.4 87.9613 55.6615 93.034C52.8923 98.1068 50.3385 103.281 47.6615 108.379C45.1077 113.198 42.3077 117.941 39.4154 122.633C37.8462 125.144 36.2462 127.655 34.3692 130.04C33.5692 131.054 32.7385 132.043 31.8769 133.007C32 132.804 32.1231 132.627 32.2462 132.424C34.7692 128.34 36.4923 123.978 38.0615 119.59C39.3539 116.774 40.6462 113.959 42.0923 111.22C43.7846 108.1 45.2923 104.93 46.7385 101.734C49.6308 95.6972 53.1385 89.9143 57.1385 84.309C59.7231 80.682 62.4923 77.1311 65.0154 73.4533C67.3846 70.0039 69.2615 66.3515 71.4154 62.826C73.0154 60.1881 74.6462 57.5503 76.0308 54.8364C76.4308 54.0755 76.8308 53.2892 77.2 52.503C77.3539 52.1225 77.5385 51.7167 77.6308 51.3109C77.6308 51.1587 77.6615 50.9811 77.5385 50.829C77.2615 50.4739 76.7077 50.6007 76.3692 50.829C75.3846 51.4377 74.4615 52.0718 73.5077 52.7312C70.4308 54.8871 67.2308 56.9162 63.9385 58.8439C70.9846 51.7928 78.4923 44.5895 81.8769 35.7122C82.1231 34.9513 82.8 33.0491 82.1231 32.415C81.6615 32.0852 81.1385 32.5418 80.8615 32.8208C78 35.763 74.9846 38.6037 71.6308 41.1654C72.9231 39.4914 74.1538 37.7667 75.2615 35.9912C77.1077 32.9476 78.9231 29.8786 80.4308 26.7081C82.2154 22.8275 83.5692 18.8454 84.9846 14.8887C86.4308 10.5769 87.7231 6.21433 89.2923 1.92787C89.4462 1.52205 89.6 1.11624 89.6923 0.685053C89.6923 0.558235 89.7539 0.406053 89.6923 0.279235C89.6 0.0509625 89.2615 -0.101219 88.9846 -0.0251284C88.7385 0.0255989 88.4923 0.152417 88.2769 0.304599C85.1385 2.73951 82.3385 5.45342 79.3231 7.96442C77.1077 9.84133 74.8615 11.7436 72.7385 13.6966C68.4615 17.7041 64.6462 22.0666 61.6308 26.7842C58.8923 31.0707 56.8923 35.7122 55.6615 40.4552C54 46.644 53.4462 52.9849 52.4 59.2497C51.2 56.5358 50.4923 53.6697 50.3385 50.7529C50.2769 49.7891 50.2154 48.7745 50.1539 47.7346C50.1539 47.2527 50.1539 46.2128 49.2615 46.4411C48.9846 46.5679 48.8308 46.8215 48.6769 47.0751C48.4 47.5317 48.1539 48.0136 47.9077 48.4955C47.1385 49.9666 46.2769 51.387 45.4769 52.8327C43.2 56.8909 41.2308 61.1012 40.2154 65.4891C39.3231 69.0908 38.8615 72.7685 38.8615 76.4209C38.8615 81.5443 39.8154 86.5917 39.7846 91.7405C38.0923 89.4831 36.3692 87.2004 35.6615 84.5626C35.2923 83.3198 35.0154 82.077 34.7692 80.8341C34.7077 80.479 34.6154 80.0986 34.5539 79.7435C34.4923 79.4899 34.4923 79.1601 34.2462 78.9826C33.6923 78.6275 33.3231 79.2362 33.2 79.6167C32.1539 82.356 31.6308 85.2474 31.5077 88.1389C31.3539 91.0557 31.6923 93.9725 32.0308 96.8893C32.3385 99.5271 32.6769 102.165 32.8923 104.828C32.7385 105.792 32.6769 106.756 32.5846 107.72C32.2154 112.463 31.5692 117.206 30.4615 121.873C29.7231 125.626 28.7692 129.329 27.1692 132.931C26.2462 135.493 25.0462 137.978 23.5385 140.337C23.2923 140.667 23.0769 141.022 22.8615 141.352C19.8769 145.74 17.1385 150.229 14.1231 154.592C12.3077 157.153 10.5539 159.766 8.92309 162.429C7.72309 164.154 6.6154 165.904 5.66155 167.705C4.83078 169.226 4.03078 170.774 3.29232 172.321C3.0154 172.98 2.2154 174.299 2.64616 174.959C3.29232 175.441 3.8154 174.806 4.2154 174.122C4.3077 174.046 4.40001 173.969 4.46155 173.893C4.7077 173.614 4.92309 173.335 5.1077 173.031C5.60001 172.346 6.09232 171.687 6.55386 171.027C8.58463 168.11 10.5539 165.168 12.5539 162.226C15.5385 157.661 18.8 153.222 22.0923 148.783C22.6462 148.048 23.1692 147.312 23.7231 146.551C24.4 145.74 25.0769 144.953 25.7846 144.142C27.0462 142.721 28.4 141.352 29.8769 140.084C31.6923 138.435 33.9692 136.837 36.0923 135.442C39.1692 133.388 41.9385 131.054 44.6462 128.695C50.9539 123.039 56.8923 117.104 63.0462 111.321C67.1385 107.263 71.5385 103.357 76.2462 99.8061C79.7231 97.3966 83.3231 95.0885 86.9846 92.8819C92.8308 89.4324 98.9846 86.3634 104.8 82.8632C111.662 78.729 118.369 74.4171 124.523 69.5727C124.708 69.3951 124.923 69.1922 124.8 68.9386C124.677 68.6089 124.185 68.6596 123.846 68.7357C122.462 69.0401 121.138 69.4966 119.785 69.7756C118.4 70.0292 116.985 70.2575 115.6 70.4604C111.815 71.0691 107.938 71.3228 104.092 71.3481C106.277 70.6633 108.492 70.0039 110.708 69.3951C116.215 68.0255 121.785 66.8588 127.169 65.1848C136.738 62.4709 145.108 57.6011 152.769 52.2493C154.646 50.9558 156.554 49.6622 158.277 48.2165C158.585 47.9121 159.046 47.6331 159.108 47.202C159.108 46.6947 158.369 46.6947 157.908 46.7961C153.6 47.5571 149.262 48.2926 144.892 48.6731C142 48.9013 138.985 49.0789 136.092 48.6477C139.446 47.8107 142.831 47.0751 146.277 46.4918C149.477 45.9591 152.708 45.4519 155.815 44.6656C160.646 43.4989 164.985 41.2161 168.677 38.4261C170.892 36.6761 172.954 34.7991 174.985 32.8969C177.138 30.8678 179.077 28.6865 181.354 26.7335C184.338 24.1464 187.6 21.7876 191.077 19.6824C193.662 18.0084 196.431 16.5881 199.292 15.2438C199.508 15.1423 199.723 15.0916 199.938 14.9901C200.123 14.8887 200.185 14.7111 200.092 14.5336H199.969ZM31.8154 135.036C31.8154 135.036 31.8154 135.036 31.7539 135.036H31.7846H31.8154ZM39.1692 107.77C41.5385 101.379 43.8154 94.9617 46.2769 88.5954C48.5846 82.077 50.8923 75.5585 53.3231 69.0908C56.0308 61.431 58.1846 53.6443 61.0462 46.0099C63.0769 40.6328 65.3539 35.3064 67.9077 30.0815C70.2154 25.3639 72.8 20.7223 76.3077 16.512C73.4462 22.1173 70.4923 27.672 68 33.3788C65.6 38.3754 63.5692 43.4735 61.8154 48.6477C57.5385 60.0867 54.9539 71.9061 50.8308 83.3705C49.0769 88.4432 47.1077 93.4652 44.9846 98.4619C43.4769 102.038 41.6923 105.614 40.2154 109.191C36.9231 117.13 33.8769 125.144 30.1231 132.956C30.0615 133.007 30 133.058 29.9385 133.109C29.8154 133.083 29.6923 133.109 29.6 133.134C30.2462 131.46 30.8615 129.761 31.3846 128.061C33.8769 121.264 36.6154 114.542 39.1692 107.77ZM131.662 45.4265C128.092 47.4556 124.523 49.4847 121.138 51.6913C115.508 55.3944 110.031 59.2243 104.585 63.105C101.415 65.4384 98.5538 68.0509 95.5692 70.5619C92.6154 73.0982 89.6308 75.5839 86.8308 78.2217C83.1077 81.6458 79.2923 85.0191 75.7231 88.57C72.5846 91.6137 69.7231 94.8602 66.8923 98.1068C64.8 100.415 62.6769 102.723 60.7077 105.107C58.3692 107.872 55.9385 110.56 53.6 113.325C51.2615 116.115 48.9539 118.905 46.6769 121.72C45.2308 123.496 43.7846 125.297 42.0923 126.945C40.0923 128.898 38.0308 130.953 35.7539 132.754C34.8923 133.388 34.0615 134.022 33.2308 134.681C33.2308 134.681 33.2308 134.681 33.2 134.681C32.8 134.605 32.8 134.301 32.8923 134.047C34.5231 132.551 36.1539 131.08 37.7539 129.558C39.6923 127.706 41.4462 125.728 43.0769 123.699C51.7539 113.249 60.5231 102.824 69.8462 92.7297C73.3231 89.0012 76.9231 85.3235 80.8 81.874C87.4769 76.0404 94.3692 70.4097 101.262 64.7282C110.154 57.4235 119.631 50.5753 129.938 44.6656C138.154 40.1001 146.892 36.1941 155.908 32.8208C147.477 36.5492 139.6 41.0893 131.662 45.4519V45.4265Z" fill="#5534DA"/>
<path d="M139.231 173.766C138.985 174.197 138.646 174.578 138.277 174.933C134.4 178.255 128.677 179.98 123.262 180.868C117.785 181.806 112.154 180.944 106.8 179.955C112.123 176.328 118.092 172.092 119.292 166.182C120.462 159.106 112.369 154.515 104.585 154.211C78.5539 153.5 55.0462 165.142 32.9846 175.212C24.6154 178.991 15.2923 183.835 5.35386 181.933C3.96924 181.603 2.55386 180.868 2.12309 179.65C2.15386 179.321 1.96924 178.94 1.56924 178.788C-1.50768 178.281 0.676937 181.857 2.09232 182.491C14.3077 188.249 31.2923 177.571 42.0923 172.954C53.2308 167.932 64.7385 162.86 76.8616 159.588C86.9231 157.127 98.8308 154.388 109.2 156.696C114.492 157.964 118.615 162.53 116.923 167.095C114.8 172.371 109.292 176.099 104.154 179.397C96.0616 177.799 87.6616 176.049 79.2923 177.038C74.6769 177.723 69.3539 179.067 67.0462 182.719C63.4462 188.705 72.4616 189.872 77.6923 189.745C87.5077 189.491 96.8616 186.169 104.615 181.274C113.415 183.176 122.123 183.886 130.708 180.893C134.585 179.422 138.985 177.799 141.077 174.527C141.723 173.538 139.815 172.726 139.2 173.715L139.231 173.766ZM77.4154 188.046C74.5846 187.868 69.6 188.198 68.4 185.585C68.2154 182.288 72.6462 180.361 75.9693 179.524C84.4923 177.393 93.4769 179.168 101.908 180.792C94.8 185.078 86.2769 187.843 77.4154 188.046Z" fill="#5534DA"/>
</g>
<defs>
<clipPath id="clip0_540_4803">
<rect width="200" height="189.796" fill="white"/>
</clipPath>
</defs>
</svg>
