<svg width="24" height="28" viewBox="0 0 24 28" fill="none" xmlns="http://www.w3.org/2000/svg">
<path d="M23.6237 2.08416C23.6127 2.0624 23.5873 2.0479 23.5619 2.05515C23.3401 2.14942 23.1184 2.2292 22.8893 2.31259C22.2605 2.54466 21.6061 2.69695 20.9518 2.84924C20.2029 3.01604 19.4396 3.1357 18.6943 3.32062C18.0509 3.47654 17.4111 3.66509 16.7931 3.91166C16.3278 4.09296 15.8698 4.28877 15.4409 4.53896C14.9319 4.81816 14.5212 5.23515 14.1213 5.64852C13.7541 6.03287 13.3833 6.41723 13.0598 6.84147C12.8781 7.08079 12.7254 7.34186 12.58 7.60293C12.809 6.73994 13.1289 5.8697 13.7141 5.18076C13.7578 5.12637 13.7069 5.0611 13.6451 5.09011C13.496 5.16263 13.3579 5.25691 13.2161 5.34393C12.1328 6.07639 11.1659 6.98651 10.3334 7.99092C9.92628 8.48768 9.53368 8.99532 9.21015 9.5501C8.83573 10.1992 8.55218 10.899 8.34861 11.6205C8.3268 11.1927 8.36315 10.7648 8.42132 10.3406C8.43222 10.2644 8.44313 10.1919 8.44676 10.1158C8.44676 10.065 8.4613 9.99247 8.41041 9.96346C8.37406 9.94533 8.33771 9.96346 8.31226 9.99247C8.27954 10.0251 8.2541 10.0614 8.22502 10.0976C8.16685 10.1738 8.10869 10.2535 8.05416 10.3333C7.8724 10.5908 7.70882 10.8627 7.56705 11.1455C7.21807 11.8599 6.89817 12.5814 6.57464 13.3066C6.24748 14.0318 5.94576 14.7715 5.6295 15.5004C5.32778 16.1893 4.99697 16.8674 4.65527 17.5382C4.46987 17.8972 4.28084 18.2561 4.0591 18.597C3.96458 18.742 3.86643 18.8834 3.76465 19.0212C3.77919 18.9922 3.79373 18.9668 3.80827 18.9378C4.10635 18.354 4.30992 17.7304 4.49532 17.1031C4.648 16.7006 4.80067 16.2981 4.97153 15.9065C5.17146 15.4605 5.34959 15.0072 5.52044 14.5504C5.86215 13.6874 6.27656 12.8606 6.74913 12.0593C7.05449 11.5408 7.38165 11.0331 7.67974 10.5074C7.95965 10.0142 8.18139 9.49208 8.43586 8.98807C8.62489 8.61096 8.81755 8.23386 8.98113 7.84588C9.02839 7.7371 9.07565 7.62469 9.11927 7.51228C9.13745 7.45789 9.15926 7.39988 9.17016 7.34186C9.17016 7.3201 9.1738 7.29472 9.15926 7.27297C9.12654 7.2222 9.06111 7.24033 9.02112 7.27297C8.9048 7.35999 8.79574 7.45064 8.68305 7.54492C8.31953 7.85313 7.94147 8.14321 7.55251 8.41878C8.38496 7.41076 9.27195 6.38097 9.67182 5.11187C9.7009 5.00309 9.78088 4.73114 9.7009 4.64049C9.64637 4.59335 9.58458 4.65862 9.55186 4.6985C9.21379 5.11912 8.85754 5.52523 8.4613 5.89146C8.61398 5.65214 8.75939 5.40557 8.89025 5.15175C9.10837 4.71663 9.32284 4.27789 9.50097 3.82464C9.71181 3.26986 9.87176 2.70058 10.039 2.13492C10.2098 1.5185 10.3625 0.894827 10.5479 0.282032C10.5661 0.224016 10.5843 0.166 10.5952 0.104358C10.5952 0.0862278 10.6024 0.0644718 10.5952 0.0463417C10.5843 0.0137077 10.5443 -0.00804832 10.5115 0.00282969C10.4825 0.0100817 10.4534 0.0282117 10.4279 0.0499677C10.0571 0.398064 9.72635 0.786047 9.3701 1.14502C9.10837 1.41335 8.843 1.6853 8.59217 1.9645C8.08688 2.53741 7.63612 3.16108 7.27987 3.83552C6.95634 4.44831 6.72005 5.11187 6.57464 5.78993C6.37834 6.67468 6.31291 7.58118 6.18931 8.4768C6.04754 8.08882 5.96393 7.67908 5.94576 7.26209C5.93849 7.1243 5.93122 6.97926 5.92395 6.83059C5.92395 6.7617 5.92395 6.61303 5.81853 6.64567C5.78581 6.6638 5.76763 6.70006 5.74946 6.73632C5.71674 6.80159 5.68766 6.87048 5.65858 6.93937C5.5677 7.14968 5.46591 7.35274 5.3714 7.55942C5.10239 8.13958 4.86974 8.7415 4.74978 9.3688C4.64436 9.88369 4.58983 10.4095 4.58983 10.9316C4.58983 11.6641 4.70252 12.3856 4.69889 13.1217C4.49895 12.799 4.29538 12.4727 4.21177 12.0956C4.16815 11.9179 4.13544 11.7402 4.10635 11.5625C4.09908 11.5118 4.08818 11.4574 4.08091 11.4066C4.07364 11.3704 4.07364 11.3232 4.04456 11.2978C3.97912 11.2471 3.9355 11.3341 3.92096 11.3885C3.79736 11.7801 3.73557 12.1935 3.72102 12.6068C3.70285 13.0238 3.74284 13.4408 3.78282 13.8578C3.81917 14.2349 3.85916 14.612 3.88461 14.9927C3.86643 15.1305 3.85916 15.2683 3.84826 15.4061C3.80463 16.0842 3.72829 16.7622 3.59743 17.4294C3.51018 17.9661 3.39749 18.4954 3.20846 19.0103C3.09941 19.3766 2.95764 19.7319 2.77951 20.0691C2.75043 20.1163 2.72498 20.167 2.69954 20.2142C2.34693 20.8415 2.02339 21.4833 1.66715 22.1069C1.45267 22.4732 1.24546 22.8467 1.0528 23.2274C0.911028 23.474 0.780161 23.7241 0.66747 23.9816C0.56932 24.1992 0.474806 24.4203 0.387561 24.6415C0.354845 24.7358 0.26033 24.9244 0.311222 25.0186C0.387561 25.0875 0.449359 24.9969 0.496617 24.899C0.507522 24.8881 0.518428 24.8772 0.525698 24.8663C0.55478 24.8265 0.580226 24.7866 0.602037 24.7431C0.6602 24.6452 0.718363 24.5509 0.772891 24.4566C1.01281 24.0396 1.24546 23.619 1.48175 23.1984C1.83436 22.5457 2.21969 21.9111 2.60866 21.2766C2.67409 21.1714 2.73589 21.0663 2.80132 20.9575C2.8813 20.8415 2.96127 20.7291 3.04488 20.613C3.19392 20.41 3.35387 20.2142 3.52836 20.0329C3.74284 19.7972 4.01184 19.5687 4.26267 19.3693C4.62618 19.0756 4.95335 18.742 5.27325 18.4048C6.01846 17.5962 6.72005 16.7477 7.44709 15.921C7.93057 15.3408 8.4504 14.7824 9.00658 14.2748C9.41736 13.9303 9.84267 13.6003 10.2753 13.2849C10.9659 12.7917 11.693 12.353 12.38 11.8526C13.1907 11.2616 13.9831 10.6452 14.7102 9.95258C14.732 9.9272 14.7574 9.89819 14.7429 9.86193C14.7284 9.8148 14.6702 9.82205 14.6302 9.83292C14.4666 9.87644 14.3103 9.94171 14.1504 9.98159C13.9868 10.0179 13.8196 10.0505 13.656 10.0795C13.2089 10.1665 12.7508 10.2028 12.2964 10.2064C12.5545 10.1085 12.8163 10.0142 13.078 9.9272C13.7287 9.7314 14.3867 9.5646 15.0228 9.32528C16.1534 8.9373 17.1421 8.24111 18.0473 7.47602C18.269 7.2911 18.4944 7.10617 18.698 6.89949C18.7343 6.85598 18.7889 6.81609 18.7961 6.75445C18.7961 6.68193 18.7089 6.68193 18.6544 6.69643C18.1454 6.80521 17.6329 6.91037 17.1167 6.96476C16.775 6.99739 16.4187 7.02277 16.077 6.96113C16.4732 6.84147 16.8731 6.73632 17.2803 6.65292C17.6583 6.57677 18.04 6.50425 18.4072 6.39185C18.9779 6.22505 19.4904 5.89871 19.9267 5.49985C20.1884 5.24966 20.432 4.98133 20.6719 4.70938C20.9263 4.4193 21.1554 4.10747 21.4244 3.82826C21.777 3.45841 22.1623 3.12119 22.5731 2.82023C22.8784 2.58092 23.2056 2.37786 23.5437 2.18568C23.5691 2.17118 23.5946 2.16393 23.62 2.14942C23.6418 2.13492 23.6491 2.10954 23.6382 2.08416H23.6237ZM3.75738 19.3113C3.75738 19.3113 3.75738 19.3113 3.75011 19.3113H3.75374H3.75738ZM4.62618 15.4133C4.90609 14.4996 5.1751 13.5822 5.46591 12.6721C5.73855 11.7402 6.01119 10.8083 6.29837 9.88369C6.61827 8.78864 6.87273 7.67545 7.2108 6.58403C7.45072 5.81531 7.71973 5.05385 8.02145 4.3069C8.29409 3.63246 8.59944 2.9689 9.01385 2.36698C8.67578 3.16833 8.3268 3.96243 8.03235 4.77828C7.74881 5.4926 7.50889 6.22143 7.30168 6.96113C6.79639 8.59646 6.49103 10.2862 6.00392 11.9251C5.79671 12.6503 5.56406 13.3683 5.31323 14.0826C5.13511 14.5939 4.92427 15.1051 4.74978 15.6164C4.36082 16.7513 4.00093 17.8972 3.55744 19.014C3.55017 19.0212 3.5429 19.0285 3.53563 19.0357C3.52109 19.0321 3.50655 19.0357 3.49564 19.0393C3.57198 18.8 3.64469 18.5571 3.70648 18.3141C4.00093 17.3424 4.32446 16.3815 4.62618 15.4133ZM15.5535 6.50063C15.1319 6.79071 14.7102 7.08079 14.3103 7.39625C13.6451 7.92565 12.998 8.47317 12.3546 9.02795C11.9802 9.36154 11.6421 9.73502 11.2895 10.094C10.9405 10.4566 10.5879 10.8119 10.2571 11.1891C9.81723 11.6786 9.36646 12.1608 8.94478 12.6685C8.57399 13.1036 8.23592 13.5677 7.90149 14.0318C7.65429 14.3618 7.40347 14.6918 7.17081 15.0326C6.89454 15.4278 6.60736 15.8122 6.33109 16.2074C6.05481 16.6063 5.78217 17.0052 5.51317 17.4076C5.34232 17.6615 5.17146 17.9189 4.97153 18.1546C4.73524 18.4338 4.49168 18.7275 4.22268 18.985C4.12089 19.0756 4.02274 19.1663 3.92459 19.2605C3.92459 19.2605 3.92459 19.2605 3.92096 19.2605C3.8737 19.2497 3.8737 19.2061 3.88461 19.1699C4.07727 18.9559 4.26994 18.7456 4.45897 18.5281C4.68798 18.2634 4.89519 17.9806 5.08785 17.6905C6.11298 16.1966 7.149 14.7063 8.25046 13.2631C8.66124 12.7301 9.08656 12.2043 9.54459 11.7112C10.3334 10.8772 11.1477 10.0722 11.962 9.26002C13.0126 8.21573 14.1322 7.23671 15.35 6.39185C16.3206 5.73917 17.353 5.18076 18.4181 4.6985C17.422 5.23153 16.4914 5.88058 15.5535 6.50425V6.50063Z" fill="#5534DA"/>
<path d="M16.4481 24.8489C16.419 24.9105 16.379 24.9649 16.3354 25.0157C15.8774 25.4907 15.2012 25.7373 14.5615 25.8642C13.9144 25.9983 13.2492 25.8751 12.6166 25.7336C13.2455 25.2151 13.9507 24.6096 14.0925 23.7647C14.2307 22.7531 13.2746 22.0968 12.3549 22.0533C9.27953 21.9517 6.50225 23.6161 3.89582 25.0556C2.90705 25.5959 1.80559 26.2884 0.631428 26.0165C0.467844 25.9693 0.300626 25.8642 0.249733 25.6901C0.253368 25.643 0.231557 25.5886 0.1843 25.5669C-0.179218 25.4943 0.0788796 26.0056 0.246098 26.0962C1.68927 26.9194 3.69589 25.3928 4.97184 24.7329C6.28777 24.0149 7.64733 23.2897 9.07959 22.822C10.2683 22.4702 11.6751 22.0786 12.9002 22.4086C13.5254 22.5899 14.0125 23.2426 13.8126 23.8953C13.5618 24.6495 12.9111 25.1825 12.304 25.6539C11.3479 25.4254 10.3555 25.1752 9.36677 25.3167C8.8215 25.4146 8.19261 25.6067 7.91997 26.1289C7.49466 26.9846 8.55976 27.1514 9.17774 27.1333C10.3374 27.097 11.4425 26.622 12.3585 25.9222C13.3982 26.1942 14.427 26.2957 15.4412 25.8678C15.8992 25.6575 16.419 25.4254 16.6662 24.9577C16.7426 24.8163 16.5172 24.7002 16.4445 24.8417L16.4481 24.8489ZM9.14503 26.8903C8.81059 26.865 8.22169 26.9121 8.07992 26.5386C8.05811 26.0672 8.58158 25.7917 8.97418 25.672C9.98112 25.3674 11.0426 25.6212 12.0386 25.8533C11.1989 26.4661 10.192 26.8613 9.14503 26.8903Z" fill="#5534DA"/>
</svg>
