<svg width="199" height="56" viewBox="0 0 199 56" fill="none" xmlns="http://www.w3.org/2000/svg">
<path d="M12.476 43.9146V12.2202H0V4.8546H33.9747V12.2202H21.4987V43.9146H12.476Z" fill="#5534DA"/>
<path d="M53.8077 43.9146V38.0556L53.2508 36.7722V26.2818C53.2508 24.4218 52.6752 22.971 51.5242 21.9294C50.4102 20.8878 48.6837 20.367 46.3444 20.367C44.7478 20.367 43.1697 20.6274 41.6102 21.1482C40.0879 21.6318 38.7883 22.3014 37.7115 23.157L34.5925 17.0748C36.2263 15.9216 38.1942 15.0288 40.4963 14.3964C42.7984 13.764 45.1377 13.4478 47.514 13.4478C52.0811 13.4478 55.6271 14.5266 58.152 16.6842C60.6769 18.8418 61.9394 22.2084 61.9394 26.784V43.9146H53.8077ZM44.6735 44.361C42.3343 44.361 40.3292 43.9704 38.6583 43.1892C36.9875 42.3708 35.7064 41.2734 34.8153 39.897C33.9242 38.5206 33.4786 36.9768 33.4786 35.2656C33.4786 33.48 33.9056 31.9176 34.7596 30.5784C35.6507 29.2392 37.0432 28.1976 38.9368 27.4536C40.8305 26.6724 43.2997 26.2818 46.3444 26.2818H54.309V31.3596H47.2913C45.2491 31.3596 43.8381 31.6944 43.0583 32.364C42.3157 33.0336 41.9444 33.8706 41.9444 34.875C41.9444 35.991 42.3714 36.8838 43.2254 37.5534C44.1166 38.1858 45.3233 38.502 46.8457 38.502C48.2938 38.502 49.5934 38.1672 50.7444 37.4976C51.8955 36.7908 52.7309 35.7678 53.2508 34.4286L54.5875 38.4462C53.9562 40.3806 52.8052 41.85 51.1343 42.8544C49.4634 43.8588 47.3098 44.361 44.6735 44.361Z" fill="#5534DA"/>
<path d="M78.6182 44.361C76.0561 44.361 73.5869 44.0634 71.2106 43.4682C68.8713 42.8358 67.0148 42.0546 65.6409 41.1246L68.5371 34.875C69.911 35.7306 71.5262 36.4374 73.3827 36.9954C75.2764 37.5162 77.1329 37.7766 78.9523 37.7766C80.9574 37.7766 82.3684 37.5348 83.1852 37.0512C84.0392 36.5676 84.4663 35.898 84.4663 35.0424C84.4663 34.3356 84.1321 33.8148 83.4637 33.48C82.8325 33.108 81.9785 32.829 80.9017 32.643C79.8249 32.457 78.6367 32.271 77.3371 32.085C76.0747 31.899 74.7937 31.6572 73.4941 31.3596C72.1945 31.0248 71.0063 30.5412 69.9296 29.9088C68.8528 29.2764 67.9802 28.4208 67.3118 27.342C66.6806 26.2632 66.365 24.8682 66.365 23.157C66.365 21.2598 66.9034 19.5858 67.9802 18.135C69.0941 16.6842 70.6907 15.5496 72.7701 14.7312C74.8494 13.8756 77.3371 13.4478 80.2333 13.4478C82.2755 13.4478 84.3549 13.671 86.4713 14.1174C88.5878 14.5638 90.3515 15.2148 91.7625 16.0704L88.8662 22.2642C87.4182 21.4086 85.9515 20.832 84.4663 20.5344C83.0182 20.1996 81.6072 20.0322 80.2333 20.0322C78.3025 20.0322 76.8916 20.2926 76.0004 20.8134C75.1093 21.3342 74.6637 22.0038 74.6637 22.8222C74.6637 23.5662 74.9793 24.1242 75.6106 24.4962C76.2789 24.8682 77.1515 25.1658 78.2283 25.389C79.3051 25.6122 80.4747 25.8168 81.7371 26.0028C83.0367 26.1516 84.3363 26.3934 85.6359 26.7282C86.9355 27.063 88.1051 27.5466 89.1447 28.179C90.2215 28.7742 91.0941 29.6112 91.7625 30.69C92.4308 31.7316 92.765 33.108 92.765 34.8192C92.765 36.6792 92.208 38.3346 91.0941 39.7854C89.9802 41.199 88.365 42.315 86.2485 43.1334C84.1692 43.9518 81.6258 44.361 78.6182 44.361Z" fill="#5534DA"/>
<path d="M104.045 37.7766L104.268 27.1746L118.247 13.8942H128.607L115.184 27.5652L110.673 31.248L104.045 37.7766ZM96.8599 43.9146V2.511H105.549V43.9146H96.8599ZM119.194 43.9146L109.057 31.3038L114.516 24.552L129.721 43.9146H119.194Z" fill="#5534DA"/>
<path d="M132.362 43.9146V13.8942H141.051V43.9146H132.362ZM136.707 9.7092C135.11 9.7092 133.81 9.2442 132.808 8.3142C131.805 7.3842 131.304 6.231 131.304 4.8546C131.304 3.4782 131.805 2.325 132.808 1.395C133.81 0.465001 135.11 0 136.707 0C138.303 0 139.603 0.446401 140.605 1.3392C141.608 2.1948 142.109 3.3108 142.109 4.6872C142.109 6.138 141.608 7.347 140.605 8.3142C139.64 9.2442 138.34 9.7092 136.707 9.7092Z" fill="#5534DA"/>
<path d="M148.907 43.9146V13.2246C148.907 9.8394 149.91 7.1424 151.915 5.1336C153.92 3.0876 156.779 2.0646 160.492 2.0646C161.754 2.0646 162.961 2.1948 164.112 2.4552C165.3 2.7156 166.303 3.1248 167.12 3.6828L164.836 9.9882C164.354 9.6534 163.815 9.393 163.221 9.207C162.627 9.021 161.996 8.928 161.327 8.928C160.065 8.928 159.081 9.3 158.375 10.044C157.707 10.7508 157.373 11.8296 157.373 13.2804V16.0704L157.596 19.809V43.9146H148.907ZM144.284 21.2598V14.5638H165.059V21.2598H144.284Z" fill="#5534DA"/>
<path d="M172.453 55.1862C170.894 55.1862 169.353 54.9444 167.83 54.4608C166.308 53.9772 165.064 53.3076 164.099 52.452L167.273 46.2582C167.942 46.8534 168.703 47.3184 169.557 47.6532C170.448 47.988 171.321 48.1554 172.175 48.1554C173.4 48.1554 174.365 47.8578 175.071 47.2626C175.813 46.7046 176.482 45.756 177.076 44.4168L178.635 40.734L179.304 39.7854L190.053 13.8942H198.407L184.873 45.756C183.908 48.174 182.794 50.0712 181.532 51.4476C180.306 52.824 178.932 53.7912 177.41 54.3492C175.925 54.9072 174.272 55.1862 172.453 55.1862ZM177.577 45.0864L164.21 13.8942H173.177L183.537 39.0042L177.577 45.0864Z" fill="#5534DA"/>
</svg>
