<svg width="24" height="26" viewBox="0 0 24 26" fill="none" xmlns="http://www.w3.org/2000/svg">
<path d="M23.3272 2.08416C23.3163 2.0624 23.2908 2.0479 23.2654 2.05515C23.0436 2.14942 22.8219 2.2292 22.5929 2.31259C21.964 2.54466 21.3097 2.69695 20.6553 2.84924C19.9065 3.01604 19.1431 3.1357 18.3979 3.32062C17.7544 3.47654 17.1147 3.66509 16.4967 3.91166C16.0314 4.09296 15.5733 4.28877 15.1444 4.53896C14.6355 4.81816 14.2247 5.23515 13.8248 5.64852C13.4577 6.03287 13.0869 6.41723 12.7633 6.84147C12.5816 7.08079 12.4289 7.34186 12.2835 7.60293C12.5125 6.73994 12.8324 5.8697 13.4177 5.18076C13.4613 5.12637 13.4104 5.0611 13.3486 5.09011C13.1996 5.16263 13.0614 5.25691 12.9197 5.34393C11.8364 6.07639 10.8694 6.98651 10.037 7.99092C9.62981 8.48768 9.23721 8.99532 8.91368 9.5501C8.53926 10.1992 8.25571 10.899 8.05214 11.6205C8.03033 11.1927 8.06668 10.7648 8.12485 10.3406C8.13575 10.2644 8.14666 10.1919 8.15029 10.1158C8.15029 10.065 8.16483 9.99247 8.11394 9.96346C8.07759 9.94533 8.04124 9.96346 8.01579 9.99247C7.98307 10.0251 7.95763 10.0614 7.92855 10.0976C7.87038 10.1738 7.81222 10.2535 7.75769 10.3333C7.57593 10.5908 7.41235 10.8627 7.27058 11.1455C6.9216 11.8599 6.6017 12.5814 6.27817 13.3066C5.95101 14.0318 5.64929 14.7715 5.33302 15.5004C5.0313 16.1893 4.7005 16.8674 4.3588 17.5382C4.1734 17.8972 3.98437 18.2561 3.76263 18.597C3.66811 18.742 3.56996 18.8834 3.46818 19.0212C3.48272 18.9922 3.49726 18.9668 3.5118 18.9378C3.80988 18.354 4.01345 17.7304 4.19885 17.1031C4.35153 16.7006 4.5042 16.2981 4.67506 15.9065C4.87499 15.4605 5.05312 15.0072 5.22397 14.5504C5.56568 13.6874 5.98009 12.8606 6.45266 12.0593C6.75802 11.5408 7.08518 11.0331 7.38327 10.5074C7.66318 10.0142 7.88492 9.49208 8.13939 8.98807C8.32842 8.61096 8.52108 8.23386 8.68466 7.84588C8.73192 7.7371 8.77918 7.62469 8.8228 7.51228C8.84098 7.45789 8.86279 7.39988 8.87369 7.34186C8.87369 7.3201 8.87733 7.29472 8.86279 7.27297C8.83007 7.2222 8.76464 7.24033 8.72465 7.27297C8.60833 7.35999 8.49927 7.45064 8.38658 7.54492C8.02306 7.85313 7.645 8.14321 7.25604 8.41878C8.08849 7.41076 8.97548 6.38097 9.37535 5.11187C9.40443 5.00309 9.4844 4.73114 9.40443 4.64049C9.3499 4.59335 9.28811 4.65862 9.25539 4.6985C8.91732 5.11912 8.56107 5.52523 8.16483 5.89146C8.31751 5.65214 8.46292 5.40557 8.59378 5.15175C8.8119 4.71663 9.02637 4.27789 9.2045 3.82464C9.41534 3.26986 9.57528 2.70058 9.7425 2.13492C9.91336 1.5185 10.066 0.894827 10.2514 0.282032C10.2696 0.224016 10.2878 0.166 10.2987 0.104358C10.2987 0.0862278 10.306 0.0644718 10.2987 0.0463417C10.2878 0.0137077 10.2478 -0.00804832 10.2151 0.00282969C10.186 0.0100817 10.1569 0.0282117 10.1315 0.0499677C9.76068 0.398064 9.42988 0.786047 9.07363 1.14502C8.8119 1.41335 8.54653 1.6853 8.2957 1.9645C7.79041 2.53741 7.33965 3.16108 6.9834 3.83552C6.65987 4.44831 6.42358 5.11187 6.27817 5.78993C6.08187 6.67468 6.01644 7.58118 5.89284 8.4768C5.75107 8.08882 5.66746 7.67908 5.64929 7.26209C5.64202 7.1243 5.63475 6.97926 5.62747 6.83059C5.62747 6.7617 5.62748 6.61303 5.52205 6.64567C5.48934 6.6638 5.47116 6.70006 5.45299 6.73632C5.42027 6.80159 5.39119 6.87048 5.36211 6.93937C5.27123 7.14968 5.16944 7.35274 5.07493 7.55942C4.80592 8.13958 4.57327 8.7415 4.45331 9.3688C4.34789 9.88369 4.29336 10.4095 4.29336 10.9316C4.29336 11.6641 4.40605 12.3856 4.40242 13.1217C4.20248 12.799 3.99891 12.4727 3.9153 12.0956C3.87168 11.9179 3.83896 11.7402 3.80988 11.5625C3.80261 11.5118 3.79171 11.4574 3.78444 11.4066C3.77717 11.3704 3.77717 11.3232 3.74809 11.2978C3.68265 11.2471 3.63903 11.3341 3.62449 11.3885C3.50089 11.7801 3.43909 12.1935 3.42455 12.6068C3.40638 13.0238 3.44636 13.4408 3.48635 13.8578C3.5227 14.2349 3.56269 14.612 3.58814 14.9927C3.56996 15.1305 3.56269 15.2683 3.55179 15.4061C3.50816 16.0842 3.43182 16.7622 3.30096 17.4294C3.21371 17.9661 3.10102 18.4954 2.91199 19.0103C2.80294 19.3766 2.66117 19.7319 2.48304 20.0691C2.45396 20.1163 2.42851 20.167 2.40307 20.2142C2.05045 20.8415 1.72692 21.4833 1.37068 22.1069C1.1562 22.4732 0.948994 22.8467 0.756329 23.2274C0.614557 23.474 0.483691 23.7241 0.371 23.9816C0.27285 24.1992 0.178335 24.4203 0.0910907 24.6415C0.058374 24.7358 -0.0361408 24.9244 0.0147518 25.0186C0.0910907 25.0875 0.152889 24.9969 0.200146 24.899C0.211052 24.8881 0.221957 24.8772 0.229228 24.8663C0.258309 24.8265 0.283755 24.7866 0.305566 24.7431C0.363729 24.6452 0.421892 24.5509 0.47642 24.4566C0.716342 24.0396 0.948994 23.619 1.18528 23.1984C1.53789 22.5457 1.92322 21.9111 2.31219 21.2766C2.37762 21.1714 2.43942 21.0663 2.50485 20.9575C2.58483 20.8415 2.6648 20.7291 2.74841 20.613C2.89745 20.41 3.0574 20.2142 3.23189 20.0329C3.44636 19.7972 3.71537 19.5687 3.9662 19.3693C4.32971 19.0756 4.65688 18.742 4.97678 18.4048C5.72199 17.5962 6.42358 16.7477 7.15062 15.921C7.6341 15.3408 8.15393 14.7824 8.71011 14.2748C9.12089 13.9303 9.5462 13.6003 9.97879 13.2849C10.6695 12.7917 11.3965 12.353 12.0836 11.8526C12.8942 11.2616 13.6867 10.6452 14.4137 9.95258C14.4355 9.9272 14.461 9.89819 14.4464 9.86193C14.4319 9.8148 14.3737 9.82205 14.3337 9.83292C14.1702 9.87644 14.0138 9.94171 13.8539 9.98159C13.6903 10.0179 13.5231 10.0505 13.3595 10.0795C12.9124 10.1665 12.4544 10.2028 12 10.2064C12.2581 10.1085 12.5198 10.0142 12.7815 9.9272C13.4322 9.7314 14.0902 9.5646 14.7263 9.32528C15.8569 8.9373 16.8457 8.24111 17.7508 7.47602C17.9726 7.2911 18.1979 7.10617 18.4015 6.89949C18.4379 6.85598 18.4924 6.81609 18.4997 6.75445C18.4997 6.68193 18.4124 6.68193 18.3579 6.69643C17.849 6.80521 17.3364 6.91037 16.8202 6.96476C16.4785 6.99739 16.1222 7.02277 15.7805 6.96113C16.1768 6.84147 16.5766 6.73632 16.9838 6.65292C17.3618 6.57677 17.7435 6.50425 18.1107 6.39185C18.6814 6.22505 19.194 5.89871 19.6302 5.49985C19.8919 5.24966 20.1355 4.98133 20.3754 4.70938C20.6299 4.4193 20.8589 4.10747 21.1279 3.82826C21.4805 3.45841 21.8658 3.12119 22.2766 2.82023C22.582 2.58092 22.9091 2.37786 23.2472 2.18568C23.2727 2.17118 23.2981 2.16393 23.3235 2.14942C23.3454 2.13492 23.3526 2.10954 23.3417 2.08416H23.3272ZM3.46091 19.3113C3.46091 19.3113 3.46091 19.3113 3.45364 19.3113H3.45727H3.46091ZM4.32971 15.4133C4.60962 14.4996 4.87863 13.5822 5.16944 12.6721C5.44208 11.7402 5.71472 10.8083 6.0019 9.88369C6.32179 8.78864 6.57626 7.67545 6.91433 6.58403C7.15425 5.81531 7.42326 5.05385 7.72498 4.3069C7.99761 3.63246 8.30297 2.9689 8.71738 2.36698C8.37931 3.16833 8.03033 3.96243 7.73588 4.77828C7.45234 5.4926 7.21242 6.22143 7.00521 6.96113C6.49992 8.59646 6.19456 10.2862 5.70745 11.9251C5.50024 12.6503 5.26759 13.3683 5.01676 14.0826C4.83864 14.5939 4.6278 15.1051 4.45331 15.6164C4.06435 16.7513 3.70446 17.8972 3.26097 19.014C3.2537 19.0212 3.24643 19.0285 3.23916 19.0357C3.22462 19.0321 3.21008 19.0357 3.19917 19.0393C3.27551 18.8 3.34821 18.5571 3.41001 18.3141C3.70446 17.3424 4.02799 16.3815 4.32971 15.4133ZM15.2571 6.50063C14.8354 6.79071 14.4137 7.08079 14.0138 7.39625C13.3486 7.92565 12.7015 8.47317 12.0581 9.02795C11.6837 9.36154 11.3456 9.73502 10.993 10.094C10.644 10.4566 10.2914 10.8119 9.96061 11.1891C9.52076 11.6786 9.06999 12.1608 8.64831 12.6685C8.27752 13.1036 7.93945 13.5677 7.60501 14.0318C7.35782 14.3618 7.10699 14.6918 6.87434 15.0326C6.59807 15.4278 6.31089 15.8122 6.03462 16.2074C5.75834 16.6063 5.4857 17.0052 5.2167 17.4076C5.04585 17.6615 4.87499 17.9189 4.67506 18.1546C4.43877 18.4338 4.19521 18.7275 3.92621 18.985C3.82442 19.0756 3.72627 19.1663 3.62812 19.2605C3.62812 19.2605 3.62812 19.2605 3.62449 19.2605C3.57723 19.2497 3.57723 19.2061 3.58814 19.1699C3.7808 18.9559 3.97347 18.7456 4.1625 18.5281C4.39151 18.2634 4.59872 17.9806 4.79138 17.6905C5.8165 16.1966 6.85253 14.7063 7.95399 13.2631C8.36477 12.7301 8.79008 12.2043 9.24812 11.7112C10.037 10.8772 10.8512 10.0722 11.6655 9.26002C12.7161 8.21573 13.8357 7.23671 15.0535 6.39185C16.0241 5.73917 17.0565 5.18076 18.1216 4.6985C17.1256 5.23153 16.195 5.88058 15.2571 6.50425V6.50063Z" fill="#5534DA"/>
</svg>
